<svg clip-rule="evenodd" fill-rule="evenodd" stroke-linejoin="round" stroke-miterlimit="1.41421" viewBox="0 0 173 173" xmlns="http://www.w3.org/2000/svg"><g fill="#fff"><path d="m3105.84 551.481-.33.001-.32.003-.33.003-.33.005-.33.006-.33.007-.32.007-.33.009-.33.01-.32.011-.33.012-.33.013-.32.014-.33.015-.32.016-.33.017-.32.018-.33.019-.32.02-.32.021-.33.022-.32.023-.32.024-.33.025-.32.026-.32.028-.32.028-.33.029-.32.03-.32.031-.32.032-.32.033-.32.034-.32.035-.32.036-.32.037-.32.038-.32.04-.31.04-.32.041-.32.041-.32.043-.31.044-.32.045-.32.046-.31.047-.32.048-.31.048-.32.05-.31.051-.32.052-.31.052-.32.054-.31.054-.31.056-.32.056-.31.058-.31.058-.31.059-.31.061-.32.061-.31.062-.31.063-.31.064-.31.065-.31.066-.31.067-.31.068-.3.069-.31.069-.31.071-.31.071-.3.073-.31.073-.31.075-.3.075-.31.076-.3.077-.31.078-.3.079-.31.08-.3.081-.3.081-.31.083-.3.083-.3.085-.3.085-.3.086-.31.087-.3.088-.3.089-.3.09-.3.091-.3.091-.29.093-.3.093-.3.095-.3.095-.3.096-.29.097-.3.098-.29.098-.3.1-.3.101-.29.101-.3.102-.29.103-.29.104-.3.105-.29.106-.29.106-.29.108-.29.108-.3.11-.29.11-.29.111-.29.111-.29.113-.28.114-.29.114-.29.115-.29.116-.29.117-.28.118-.29.119-.28.119-.29.12-.29.121-.28.122-.29.123-.28.124-.28.125-.28.125-.29.126-.28.127-.28.128-.28.129-.28.129-.28.131-.28.131-.28.132-.28.132-.28.134-.27.135-.28.135-.28.136-.28.137-.27.137-.28.139-.27.139-.28.14-.27.141-.27.142-.28.143-.27.143-.27.144-.27.145-.27.146-.28.146-.27.148-.26.148-.27.149-.27.15-.27.15-.27.151-.27.152-.26.153-.27.154-.26.154-.27.155-.26.156-.27.157-.26.158-.26.158-.27.159-.26.16-.26.16-.26.162-.26.162-.26.163-.26.163-.26.165-.26.165-.26.166-.25.167-.26.167-.26.168-.25.169-.26.17-.25.17-.26.171-.25.172-.25.173-.26.173-.25.174-.25.175-.25.176-.25.176-.25.177-.25.178-.25.179-.25.179-.24.18-.25.181-.24.181-.25.182-.25.183-.24.184-.24.184-.25.185-.24.186-.24.186-.25.187-.24.188-.24.189-.24.189-.24.19-.24.191-.23.191-.24.192-.24.193-.24.194-.23.194-.24.195-.23.194-.47.395-.47.396-.46.398-.46.402-.46.404-.45.407-.46.409-.45.412-.44.415-.45.418-.44.42-.45.423-.43.425-.44.428-.43.43-.43.434-.43.435-.43.438-.42.441-.42.444-.42.445-.41.449-.41.45-.41.454-.41.455-.4.458-.4.461-.4.463-.4.465-.39.47-.2.233-.19.235-.2.236-.19.237-.19.237-.2.238-.19.238-.19.239-.19.24-.19.24-.19.24-.18.242-.19.241-.19.243-.18.243-.19.243-.18.244-.19.245-.18.245-.18.246-.18.246-.18.247-.18.248-.18.248-.18.248-.18.25-.18.249-.17.251-.18.25-.17.252-.18.252-.17.252-.17.253-.17.254-.18.254-.17.254-.17.256-.16.255-.17.257-.17.256-.17.258-.16.258-.17.258-.16.259-.17.259-.16.26-.16.261-.16.261-.16.261-.16.262-.16.263-.16.263-.16.263-.16.264-.15.265-.16.265-.15.266-.15.266-.16.266-.15.268-.15.267-.15.268-.15.269-.15.269-.15.27-.14.27-.15.27-.15.271-.14.272-.15.272-.14.273-.14.273-.14.273-.14.274-.14.275-.14.274-.14.276-.14.276-.14.276-.13.277-.14.277-.13.278-.14.278-.13.279-.13.279-.13.28-.13.28-.13.28-.13.281-.13.282-.13.282-.12.282-.13.283-.12.283-.13.284-.12.284-.12.285-.12.285-.12.285-.12.286-.12.286-.12.287-.11.287-.12.288-.12.288-.11.289-.11.289-.12.289-.11.29-.11.29-.11.291-.11.291-.11.291-.1.292-.11.293-.11.292-.1.293-.11.294-.1.294-.1.294-.1.295-.1.295-.1.296-.1.296-.1.296-.1.297-.09.297-.1.298-.09.298-.09.298-.1.299-.09.299-.09.3-.09.3-.09.3-.09.301-.08.301-.09.302-.09.301-.08.303-.08.302-.09.303-.08.304-.08.303-.08.305-.08.304-.08.305-.07.305-.08.306-.07.306-.08.306-.07.307-.07.307-.08.307-.07.308-.07.308-.07.308-.06.309-.07.309-.06.31-.07.31-.06.31-.07.31-.06.311-.06.311-.06.312-.06.312-.06.312-.06.313-.05.312-.06.314-.05.313-.06.314-.05.314-.05.315-.05.315-.05.315-.05.315-.05.316-.04.316-.05.317-.05.316-.04.318-.04.317-.04.318-.05.318-.04.318-.03.319-.04.319-.04.319-.04.319-.03.32-.03.32-.04.321-.03.32-.03.321-.03.322-.03.321-.03.322-.02.322-.03.323-.03.323-.02.323-.02.323-.02.324-.03.324-.02.324-.02.324-.01.325-.02.325-.02.325-.01.326-.02.325-.01.327-.01.326-.01.326-.01.327-.01.327-.01.328v.328l-.01.327-.01.329v.328.329.329.329.329.329.329.328l.01.328.01.328v.328l.01.327.01.327.01.327.01.327.01.326.01.326.02.326.01.325.02.326.02.325.01.324.02.325.02.324.03.324.02.323.02.324.02.323.03.323.03.322.02.322.03.322.03.322.03.321.03.321.03.321.04.32.03.32.03.32.04.32.04.319.04.319.03.319.04.318.05.318.04.318.04.317.04.317.05.317.05.316.04.316.05.316.05.316.05.315.05.315.05.314.05.314.06.314.05.314.06.313.05.313.06.313.06.312.06.312.06.311.06.311.06.311.07.311.06.31.07.31.06.309.07.309.06.309.07.309.07.308.07.308.08.307.07.307.07.307.08.306.07.306.08.305.07.306.08.304.08.305.08.304.08.304.08.303.09.303.08.303.08.302.09.302.09.301.08.302.09.3.09.301.09.3.09.299.09.299.1.299.09.298.09.298.1.298.09.297.1.297.1.296.1.296.1.296.1.295.1.295.1.294.1.294.11.294.1.293.11.293.11.292.1.292.11.292.11.291.11.29.11.291.11.289.12.29.11.289.11.288.12.288.12.288.11.287.12.287.12.286.12.286.12.286.12.285.12.285.12.284.13.283.12.284.13.282.12.283.13.282.13.281.13.281.13.281.13.28.13.279.13.28.13.278.14.279.13.277.14.278.13.276.14.277.14.276.14.275.14.275.14.274.14.274.14.274.14.273.14.273.15.272.14.271.15.271.15.271.14.27.15.27.15.269.15.268.15.268.15.268.15.267.16.267.15.266.15.265.16.266.15.264.16.264.16.264.16.263.16.262.16.262.16.262.16.261.16.26.16.26.17.26.16.259.17.258.16.258.17.257.17.257.17.256.16.256.17.255.17.255.18.254.17.253.17.253.17.253.18.252.17.251.18.251.17.25.18.25.18.249.18.249.18.248.18.247.18.247.18.247.18.245.18.246.19.244.18.244.19.244.18.243.19.242.19.242.18.241.19.241.19.24.19.239.19.239.19.239.2.237.19.238.19.236.2.236.19.236.2.233.39.469.4.466.4.463.4.46.4.458.41.456.41.453.41.451.41.448.42.446.42.443.42.441.43.438.43.436.43.433.43.431.44.428.43.425.45.423.44.42.45.417.44.415.45.412.46.41.45.407.46.404.46.401.46.399.47.396.47.395.23.194.24.195.23.194.24.193.24.193.24.192.23.192.24.19.24.19.24.19.24.188.24.188.25.187.24.187.24.185.25.185.24.185.24.183.25.183.25.182.24.182.25.181.24.18.25.179.25.178.25.178.25.177.25.177.25.175.25.175.25.174.26.174.25.172.25.172.26.171.25.171.26.169.25.169.26.169.26.167.25.167.26.166.26.165.26.164.26.164.26.163.26.162.26.161.26.161.26.16.27.159.26.158.26.157.27.157.26.156.27.155.26.155.27.153.26.153.27.152.27.151.27.151.27.15.27.149.26.148.27.147.28.147.27.145.27.145.27.144.27.144.28.142.27.142.27.141.28.14.27.14.28.138.27.138.28.137.28.136.28.135.27.134.28.134.28.133.28.132.28.131.28.13.28.13.28.129.28.127.28.127.29.127.28.125.28.125.28.123.29.123.28.122.29.121.29.121.28.119.29.119.28.117.29.117.29.116.29.116.29.114.28.114.29.112.29.112.29.111.29.11.3.109.29.109.29.107.29.107.29.105.3.105.29.104.29.103.3.103.29.101.3.101.3.099.29.099.3.098.29.097.3.096.3.095.3.094.3.094.29.092.3.092.3.09.3.09.3.089.3.088.31.087.3.087.3.085.3.084.3.084.31.082.3.082.3.081.31.08.3.078.31.078.3.078.31.076.3.075.31.074.31.074.3.072.31.072.31.07.31.07.3.069.31.068.31.066.31.066.31.065.31.064.31.063.31.063.32.061.31.06.31.059.31.059.31.057.32.057.31.055.31.055.32.053.31.053.32.052.31.05.32.05.31.049.32.048.31.046.32.046.32.045.31.044.32.043.32.042.32.041.31.04.32.039.32.038.32.037.32.036.32.035.32.034.32.033.32.033.32.031.32.03.33.029.32.028.32.027.32.026.33.025.32.024.32.024.33.022.32.021.32.02.33.019.32.018.33.017.32.016.33.015.32.014.33.013.33.012.32.01.33.01.33.009.32.008.33.007.33.005.33.005.33.004.32.002.33.002h.33.33l.33-.002.33-.002.33-.004.33-.005.32-.005.33-.007.33-.008.33-.009.32-.01.33-.01.33-.012.32-.013.33-.014.32-.015.33-.016.32-.017.33-.018.32-.019.33-.02.32-.021.33-.022.32-.024.32-.024.32-.025.33-.026.32-.027.32-.028.32-.029.32-.03.33-.031.32-.033.32-.033.32-.034.32-.035.32-.036.32-.037.31-.038.32-.039.32-.04.32-.041.32-.042.31-.043.32-.044.32-.045.31-.046.32-.046.32-.048.31-.049.32-.05.31-.05.32-.052.31-.053.31-.053.32-.055.31-.055.31-.057.32-.057.31-.059.31-.059.31-.06.31-.061.31-.063.31-.063.32-.064.3-.065.31-.066.31-.066.31-.068.31-.069.31-.07.31-.07.3-.072.31-.072.31-.074.3-.074.31-.075.31-.076.3-.078.31-.078.3-.078.3-.08.31-.081.3-.082.3-.082.31-.084.3-.084.3-.085.3-.087.3-.087.3-.088.3-.089.23-.067.07-.023.3-.09.3-.092.3-.092.3-.094.3-.094.3-.095.29-.096.3-.097.3-.098.29-.099.3-.099.29-.101.3-.101.29-.103.3-.103.29-.104.29-.105.3-.105.29-.107.29-.107.29-.109.29-.109.29-.11.29-.111.29-.112.29-.112.29-.114.29-.114.29-.116.29-.116.28-.117.29-.117.29-.119.28-.119.29-.121.28-.121.29-.122.28-.123.29-.123.28-.125.28-.125.28-.127.28-.127.29-.127.28-.129.28-.13.28-.13.28-.131.28-.132.28-.133.27-.134.28-.134.28-.135.28-.136.27-.137.28-.138.27-.138.28-.14.27-.14.28-.141.27-.142.27-.142.28-.144.27-.144.27-.145.27-.145.27-.147.27-.147.27-.148.27-.149.27-.15.27-.151.27-.151.26-.152.27-.153.26-.153.27-.155.27-.155.26-.156.26-.157.27-.157.26-.158.26-.159.26-.16.27-.161.26-.161.26-.162.26-.163.26-.164.26-.164.26-.165.25-.166.26-.167.26-.167.25-.169.26-.169.25-.169.26-.171.25-.171.26-.172.25-.172.25-.174.25-.174.26-.175.25-.175.25-.177.25-.177.25-.178.24-.178.25-.179.25-.18.25-.181.24-.182.25-.182.24-.183.25-.183.24-.185.25-.185.24-.185.24-.187.24-.187.24-.188.24-.188.24-.19.24-.19.24-.19.24-.192.24-.192.24-.193.23-.193.24-.194.23-.195.24-.194.47-.395.46-.396.47-.399.46-.401.45-.404.46-.407.45-.41.45-.412.45-.415.45-.417.44-.42.44-.423.44-.425.44-.428.43-.431.43-.433.43-.436.42-.438.43-.441.41-.443.42-.446.42-.448.41-.451.41-.453.41-.456.4-.458.4-.46.4-.463.4-.466.39-.469.19-.233.2-.236.19-.236.2-.236.19-.238.19-.237.19-.239.2-.239.18-.239.19-.24.19-.241.19-.241.19-.242.18-.242.19-.243.19-.244.18-.244.18-.244.19-.246.18-.245.18-.247.18-.247.18-.247.18-.248.18-.249.18-.249.17-.25.18-.25.17-.251.18-.251.17-.252.18-.253.17-.253.17-.253.17-.254.17-.255.17-.255.17-.256.17-.256.17-.257.16-.257.17-.258.17-.258.16-.259.16-.26.17-.26.16-.26.16-.261.16-.262.16-.262.16-.262.16-.263.16-.264.15-.264.16-.264.15-.266.16-.265.15-.266.15-.267.16-.267.15-.268.15-.268.15-.268.15-.269.14-.27.15-.27.15-.271.14-.271.15-.271.14-.272.15-.273.14-.273.14-.274.14-.274.14-.274.14-.275.14-.275.14-.276.13-.277.14-.276.14-.278.13-.277.13-.279.14-.278.13-.28.13-.279.13-.28.13-.281.13-.281.13-.281.12-.282.13-.283.13-.282.12-.284.12-.283.13-.284.12-.285.12-.285.12-.286.12-.286.12-.286.11-.287.12-.287.12-.288.11-.288.12-.288.11-.289.11-.29.12-.289.11-.291.11-.29.11-.291.1-.292.11-.292.11-.292.1-.293.11-.293.1-.294.11-.294.1-.294.1-.295.1-.295.1-.296.1-.296.1-.296.09-.297.1-.297.09-.298.1-.298.09-.298.09-.299.1-.299.09-.299.09-.3.09-.301.08-.3.09-.302.09-.301.08-.302.09-.302.08-.303.08-.303.08-.303.09-.304.08-.304.07-.305.08-.304.08-.306.08-.305.07-.306.08-.306.07-.307.07-.307.07-.307.07-.308.07-.308.07-.309.07-.309.07-.309.06-.309.07-.31.06-.31.06-.311.07-.311.06-.311.06-.311.06-.312.06-.312.05-.313.06-.313.06-.313.05-.314.05-.314.06-.314.05-.314.05-.315.05-.315.05-.316.04-.316.05-.316.05-.316.04-.317.05-.317.04-.317.04-.318.04-.318.04-.318.04-.319.04-.319.04-.319.03-.32.04-.32.03-.32.03-.32.04-.321.03-.321.03-.321.03-.322.03-.322.02-.322.03-.322.02-.323.03-.323.02-.324.02-.323.02-.324.02-.324.02-.325.02-.324.02-.325.01-.326.02-.325.01-.326.02-.326.01-.326.01-.327.01-.327.01-.327v-.327l.01-.328.01-.328v-.328-.328l.01-.329v-.329-.329-.329-.329l-.01-.329v-.328-.329l-.01-.327-.01-.328v-.328l-.01-.327-.01-.327-.01-.326-.01-.326-.02-.327-.01-.325-.02-.326-.01-.325-.02-.325-.02-.325-.02-.324-.02-.324-.02-.324-.02-.324-.02-.323-.03-.323-.02-.323-.03-.323-.02-.322-.03-.322-.03-.321-.03-.322-.03-.321-.04-.32-.03-.321-.03-.32-.04-.32-.03-.319-.04-.319-.04-.319-.04-.319-.04-.318-.04-.318-.04-.318-.04-.317-.05-.318-.04-.316-.05-.317-.05-.316-.04-.316-.05-.315-.05-.315-.05-.315-.05-.315-.06-.314-.05-.314-.05-.313-.06-.314-.06-.312-.05-.313-.06-.312-.06-.312-.06-.312-.06-.311-.07-.311-.06-.31-.06-.31-.07-.31-.06-.31-.07-.309-.07-.309-.07-.308-.07-.308-.07-.308-.07-.307-.07-.307-.07-.307-.08-.306-.07-.306-.08-.306-.08-.305-.08-.305-.07-.304-.08-.305-.09-.303-.08-.304-.08-.303-.08-.302-.09-.303-.08-.301-.09-.302-.09-.301-.08-.301-.09-.3-.09-.3-.09-.3-.1-.299-.09-.299-.09-.298-.1-.298-.09-.298-.1-.297-.09-.297-.1-.296-.1-.296-.1-.296-.1-.295-.1-.295-.1-.294-.11-.294-.1-.294-.11-.293-.1-.292-.11-.293-.11-.292-.1-.291-.11-.291-.11-.291-.11-.29-.12-.29-.11-.289-.11-.289-.12-.289-.11-.288-.12-.288-.12-.287-.11-.287-.12-.286-.12-.286-.12-.285-.12-.285-.12-.285-.13-.284-.12-.284-.12-.283-.13-.283-.13-.282-.12-.282-.13-.282-.13-.281-.13-.28-.13-.28-.13-.28-.13-.279-.14-.279-.13-.278-.13-.278-.14-.277-.14-.277-.13-.276-.14-.276-.14-.276-.14-.274-.14-.275-.14-.274-.14-.273-.14-.273-.15-.273-.14-.272-.15-.272-.14-.271-.15-.27-.15-.27-.14-.27-.15-.269-.15-.269-.15-.268-.15-.267-.16-.268-.15-.266-.15-.266-.16-.266-.15-.265-.16-.265-.15-.264-.16-.263-.16-.263-.16-.263-.16-.262-.16-.261-.16-.261-.16-.261-.17-.26-.16-.259-.16-.259-.17-.258-.17-.258-.16-.258-.17-.256-.17-.257-.17-.255-.17-.256-.17-.254-.17-.254-.17-.254-.17-.253-.18-.252-.17-.252-.18-.252-.17-.25-.18-.251-.17-.249-.18-.25-.18-.248-.18-.248-.18-.248-.18-.247-.18-.246-.18-.246-.19-.245-.18-.245-.18-.244-.19-.243-.19-.243-.18-.243-.19-.241-.19-.242-.19-.24-.19-.24-.18-.24-.2-.239-.19-.238-.19-.238-.19-.237-.2-.237-.19-.236-.2-.235-.19-.233-.39-.47-.4-.465-.4-.463-.4-.461-.4-.458-.41-.455-.41-.454-.41-.45-.42-.449-.42-.445-.41-.444-.43-.441-.42-.438-.43-.435-.43-.434-.43-.43-.44-.428-.44-.425-.44-.423-.44-.42-.45-.418-.45-.415-.45-.412-.45-.409-.46-.407-.45-.404-.46-.402-.47-.398-.46-.396-.47-.395-.24-.194-.23-.195-.24-.194-.23-.194-.24-.193-.24-.192-.24-.191-.24-.191-.24-.19-.24-.189-.24-.189-.24-.188-.24-.187-.24-.186-.24-.186-.25-.185-.24-.184-.25-.184-.24-.183-.25-.182-.24-.181-.25-.181-.25-.18-.25-.179-.24-.179-.25-.178-.25-.177-.25-.176-.25-.176-.26-.175-.25-.174-.25-.173-.25-.173-.26-.172-.25-.171-.26-.17-.25-.17-.26-.169-.25-.168-.26-.167-.26-.167-.25-.166-.26-.165-.26-.165-.26-.163-.26-.163-.26-.162-.26-.162-.27-.16-.26-.16-.26-.159-.26-.158-.27-.158-.26-.157-.26-.156-.27-.155-.27-.154-.26-.154-.27-.153-.26-.152-.27-.151-.27-.15-.27-.15-.27-.149-.27-.148-.27-.148-.27-.146-.27-.146-.27-.145-.27-.144-.28-.143-.27-.143-.27-.142-.28-.141-.27-.14-.28-.139-.27-.139-.28-.137-.27-.137-.28-.136-.28-.135-.28-.135-.27-.134-.28-.132-.28-.132-.28-.131-.28-.131-.28-.129-.28-.129-.29-.128-.28-.127-.28-.126-.28-.125-.28-.125-.29-.124-.28-.123-.29-.122-.28-.121-.29-.12-.28-.119-.29-.119-.29-.118-.28-.117-.29-.116-.29-.115-.29-.114-.29-.114-.29-.113-.29-.111-.29-.111-.29-.11-.29-.11-.29-.108-.29-.108-.29-.106-.3-.106-.29-.105-.29-.104-.3-.103-.29-.102-.3-.101-.29-.101-.3-.1-.29-.098-.3-.098-.3-.097-.29-.096-.3-.095-.3-.095-.3-.093-.3-.093-.3-.091-.3-.091-.3-.09-.3-.089-.3-.088-.3-.087-.3-.086-.3-.085-.3-.085-.31-.083-.3-.083-.3-.081-.31-.081-.3-.08-.3-.079-.31-.078-.3-.077-.31-.076-.31-.075-.3-.075-.31-.073-.31-.073-.3-.071-.31-.071-.31-.069-.31-.069-.31-.068-.31-.067-.31-.066-.3-.065-.32-.064-.31-.063-.31-.062-.31-.061-.31-.061-.31-.059-.31-.058-.32-.058-.31-.056-.31-.056-.32-.054-.31-.054-.31-.052-.32-.052-.31-.051-.32-.05-.31-.048-.32-.048-.32-.047-.31-.046-.32-.045-.32-.044-.31-.043-.32-.041-.32-.041-.32-.04-.32-.04-.31-.038-.32-.037-.32-.036-.32-.035-.32-.034-.32-.033-.32-.032-.33-.031-.32-.03-.32-.029-.32-.028-.32-.028-.33-.026-.32-.025-.32-.024-.32-.023-.33-.022-.32-.021-.33-.02-.32-.019-.33-.018-.32-.017-.33-.016-.32-.015-.33-.014-.32-.013-.33-.012-.33-.011-.32-.01-.33-.009-.33-.007-.33-.007-.32-.006-.33-.005-.33-.003-.33-.003-.33-.001-.33-.001zm1.03-6.262.35.003.35.004.35.005.34.006.35.007.35.008.35.01.34.01.35.012.35.012.34.014.35.015.34.016.35.017.34.018.35.019.34.02.34.021.35.023.34.023.34.025.35.025.34.027.34.027.34.029.35.03.34.031.34.032.34.033.34.034.34.035.34.036.34.038.34.038.34.039.33.041.34.041.34.042.34.044.34.044.33.046.34.047.34.047.33.049.34.05.33.051.34.051.33.053.34.054.33.055.33.056.34.057.33.058.33.058.34.06.33.061.33.062.33.063.33.064.33.065.33.066.33.067.33.068.33.069.33.07.33.071.33.072.32.073.33.074.33.075.32.076.33.077.32.078.33.079.32.08.33.081.32.082.33.083.32.084.32.084.33.086.32.087.32.088.32.088.32.09.32.09.32.092.32.093.32.093.32.094.32.096.32.096.32.098.31.098.32.099.32.1.31.101.32.102.31.103.32.104.31.105.32.106.31.107.31.107.32.109.31.109.31.111.31.111.31.112.31.114.31.114.31.115.31.116.31.117.31.118.31.118.3.12.31.121.31.121.3.122.31.124.3.124.31.125.3.126.31.127.3.127.3.129.3.13.31.13.3.132.3.132.3.133.3.134.3.135.3.135.29.137.3.138.3.138.3.139.29.14.3.142.29.141.3.143.29.144.3.144.29.146.29.146.3.147.29.148.29.149.29.149.29.151.29.151.29.152.29.153.29.154.29.155.28.156.29.156.28.157.29.158.29.159.28.16.29.161.28.161.28.162.28.163.29.164.28.165.28.166.28.166.28.167.28.168.28.169.27.17.28.17.28.171.28.173.27.172.28.174.27.175.28.175.27.176.27.177.27.178.28.178.27.179.27.181.27.18.27.182.27.183.27.183.27.184.26.185.27.185.26.187.27.187.27.188.26.188.26.19.27.19.26.191.26.192.26.192.26.194.27.194.25.195.26.195.26.197.26.197.26.198.25.198.26.2.26.2.25.201.25.201.26.203.25.203.25.204.25.204.25.205.26.207.25.206.25.209.49.416.5.42.49.423.49.426.48.429.49.432.48.434.47.438.48.44.47.443.47.446.47.448.47.452.46.454.46.457.45.459.46.463.45.465.45.467.44.471.45.473.44.475.43.479.44.48.43.484.43.486.43.489.42.491.42.494.42.495.2.251.21.249.21.251.2.251.21.251.2.253.2.253.21.253.2.254.2.255.2.255.2.256.2.257.19.257.2.258.2.259.19.259.2.259.19.261.2.26.19.262.19.262.19.263.19.263.19.264.19.264.19.265.19.266.18.266.19.267.18.267.19.268.18.269.18.269.18.269.18.271.18.27.18.272.18.272.18.272.18.273.17.274.18.274.17.275.18.276.17.276.17.276.17.277.17.278.17.278.17.278.17.28.17.279.16.281.17.281.16.281.17.282.16.283.16.283.16.283.16.284.16.285.16.285.16.286.16.286.16.287.15.287.16.288.15.288.15.289.15.289.16.29.15.291.15.29.14.292.15.292.15.292.15.293.14.294.15.294.14.294.14.295.14.295.15.296.14.297.13.297.14.297.14.298.14.298.13.299.14.299.13.3.13.301.14.3.13.302.13.301.13.303.13.302.12.303.13.304.13.304.12.305.13.305.12.305.12.306.12.307.12.307.12.307.12.308.12.308.12.309.11.309.12.309.11.31.12.311.11.311.11.311.11.312.11.312.11.313.11.313.1.313.11.314.1.315.11.314.1.316.1.315.1.316.1.317.1.317.1.317.1.318.09.318.1.319.09.319.1.319.09.32.09.32.09.321.09.321.09.321.09.322.09.322.08.323.09.323.08.323.08.324.08.324.09.324.07.325.08.326.08.325.08.326.07.327.08.327.07.327.08.327.07.328.07.329.07.328.07.329.07.33.06.33.07.33.06.33.07.331.06.331.06.332.06.332.06.332.06.332.06.333.06.334.05.333.06.334.05.335.06.334.05.335.05.336.05.335.05.336.04.336.05.337.05.337.04.337.05.338.04.338.04.338.04.339.04.339.04.339.03.339.04.34.03.34.04.341.03.34.03.341.04.342.03.341.02.342.03.342.03.343.02.343.03.343.02.343.02.344.03.344.02.344.02.345.01.344.02.345.02.346.01.345.01.346.02.347.01.346.01.347.01.347.01.347v.347l.01.348v.348l.01.348v.349.349.349.349.349.348l-.01.348v.348l-.01.348v.348l-.01.347-.01.347-.01.347-.01.346-.02.346-.01.346-.01.346-.02.345-.02.345-.01.345-.02.344-.02.345-.03.344-.02.343-.02.344-.03.343-.02.343-.03.342-.03.342-.02.342-.03.342-.04.341-.03.341-.03.341-.04.34-.03.341-.04.339-.03.34-.04.339-.04.339-.04.338-.04.339-.04.338-.05.337-.04.338-.05.336-.05.337-.04.336-.05.336-.05.336-.05.335-.05.335-.06.335-.05.334-.06.334-.05.334-.06.333-.06.333-.06.333-.06.332-.06.332-.06.331-.06.332-.07.33-.06.331-.07.33-.06.33-.07.329-.07.329-.07.329-.07.328-.07.328-.08.328-.07.327-.08.327-.07.326-.08.326-.08.326-.08.325-.07.325-.09.325-.08.324-.08.324-.08.323-.09.323-.08.323-.09.322-.09.322-.09.321-.09.321-.09.321-.09.32-.09.32-.1.319-.09.319-.1.318-.09.319-.1.317-.1.318-.1.317-.1.316-.1.316-.1.316-.1.315-.11.315-.1.314-.11.314-.1.314-.11.313-.11.313-.11.312-.11.312-.11.311-.11.311-.12.31-.11.31-.12.31-.11.309-.12.309-.12.308-.12.308-.12.307-.12.307-.12.306-.12.306-.12.306-.13.305-.12.304-.13.304-.13.304-.12.303-.13.303-.13.302-.13.302-.13.301-.14.301-.13.3-.13.3-.14.299-.13.299-.14.299-.14.298-.14.297-.13.297-.14.296-.15.296-.14.296-.14.295-.14.294-.15.294-.14.293-.15.293-.15.293-.15.292-.14.291-.15.291-.15.29-.16.29-.15.29-.15.288-.15.289-.16.288-.15.287-.16.287-.16.286-.16.285-.16.286-.16.284-.16.284-.16.284-.16.283-.16.282-.17.282-.16.282-.17.281-.16.28-.17.28-.17.279-.17.279-.17.278-.17.278-.17.277-.17.276-.17.276-.18.275-.17.275-.18.274-.17.274-.18.273-.18.273-.18.272-.18.271-.18.271-.18.27-.18.27-.18.269-.18.268-.19.268-.18.268-.19.267-.18.266-.19.265-.19.265-.19.265-.19.264-.19.263-.19.263-.19.262-.19.261-.2.261-.19.26-.2.26-.19.259-.2.258-.2.258-.19.257-.2.257-.2.256-.2.255-.2.255-.2.254-.21.254-.2.253-.2.252-.21.252-.2.251-.21.25-.21.25-.2.251-.42.495-.42.493-.42.492-.43.488-.43.487-.43.483-.44.481-.43.478-.44.476-.45.473-.44.47-.45.468-.45.465-.46.462-.45.46-.46.457-.46.454-.47.451-.47.449-.47.446-.47.443-.48.44-.47.437-.48.435-.49.431-.48.429-.49.426-.49.423-.5.42-.49.416-.25.209-.25.207-.26.206-.25.205-.25.205-.25.204-.25.203-.26.202-.25.202-.25.201-.26.2-.26.199-.25.199-.26.198-.26.197-.26.196-.26.196-.25.195-.27.194-.26.193-.26.193-.26.191-.26.191-.27.191-.26.189-.26.189-.27.188-.27.187-.26.186-.27.186-.26.185-.27.184-.27.183-.27.182-.27.182-.27.181-.27.18-.27.179-.28.179-.27.178-.27.177-.27.176-.28.175-.27.174-.28.174-.27.173-.28.172-.28.171-.28.171-.27.169-.28.169-.28.168-.28.168-.28.166-.28.166-.28.164-.29.164-.28.163-.28.163-.28.161-.29.161-.28.159-.29.159-.29.158-.28.158-.29.156-.28.156-.29.154-.29.154-.29.153-.29.152-.29.152-.29.15-.29.15-.29.149-.29.148-.3.147-.29.146-.29.145-.3.145-.29.143-.3.143-.29.142-.3.141-.29.14-.3.139-.3.139-.3.137-.29.137-.3.136-.3.135-.3.134-.3.133-.3.132-.3.131-.31.131-.3.129-.3.129-.3.128-.31.127-.3.126-.31.125-.3.124-.31.123-.3.123-.31.121-.31.121-.3.119-.31.119-.31.118-.31.117-.31.116-.31.115-.31.114-.31.113-.31.112-.31.112-.31.11-.31.11-.32.108-.31.108-.31.107-.32.106-.31.104-.32.104-.31.103-.32.102-.31.101-.32.101-.32.099-.31.098-.32.097-.32.097-.08.024-.24.071-.32.094-.32.094-.32.092-.32.092-.32.091-.32.089-.32.089-.32.088-.32.086-.33.086-.32.085-.32.084-.33.083-.32.082-.33.08-.32.08-.33.079-.32.078-.33.077-.32.076-.33.075-.33.074-.32.073-.33.072-.33.071-.33.07-.33.069-.33.068-.33.067-.33.066-.33.065-.33.064-.33.063-.33.062-.33.061-.34.06-.33.059-.33.058-.34.057-.33.056-.33.055-.34.053-.33.053-.34.052-.33.051-.34.049-.33.049-.34.048-.34.046-.33.046-.34.045-.34.043-.34.043-.34.041-.33.04-.34.04-.34.038-.34.037-.34.036-.34.036-.34.034-.34.033-.34.032-.34.03-.35.03-.34.029-.34.028-.34.026-.35.026-.34.025-.34.023-.35.022-.34.022-.34.02-.35.019-.34.018-.35.017-.34.016-.35.015-.34.013-.35.013-.35.012-.34.01-.35.009-.35.009-.35.007-.34.006-.35.005-.35.004-.35.002-.35.002-.35.001-.35-.001-.34-.002-.35-.002-.35-.004-.35-.005-.35-.006-.34-.007-.35-.009-.35-.009-.34-.01-.35-.012-.35-.013-.34-.013-.35-.015-.34-.016-.35-.017-.34-.018-.35-.019-.34-.02-.35-.022-.34-.022-.34-.023-.35-.025-.34-.026-.34-.026-.35-.028-.34-.029-.34-.03-.34-.03-.34-.032-.34-.033-.34-.034-.34-.036-.34-.036-.34-.037-.34-.038-.34-.04-.34-.04-.34-.041-.33-.043-.34-.043-.34-.045-.34-.046-.33-.046-.34-.048-.33-.049-.34-.049-.34-.051-.33-.052-.34-.053-.33-.053-.33-.055-.34-.056-.33-.057-.33-.058-.34-.059-.33-.06-.33-.061-.33-.062-.33-.063-.33-.064-.33-.065-.34-.066-.33-.067-.32-.068-.33-.069-.33-.07-.33-.071-.33-.072-.33-.073-.32-.074-.33-.075-.33-.076-.32-.077-.33-.078-.32-.079-.33-.08-.32-.08-.33-.082-.32-.083-.32-.084-.33-.085-.32-.086-.32-.086-.32-.088-.32-.089-.33-.089-.32-.091-.32-.092-.32-.092-.32-.094-.31-.094-.32-.095-.32-.097-.32-.097-.32-.098-.31-.099-.32-.101-.32-.101-.31-.102-.32-.103-.31-.104-.32-.104-.31-.106-.31-.107-.32-.108-.31-.108-.31-.11-.31-.11-.32-.112-.31-.112-.31-.113-.31-.114-.31-.115-.3-.116-.31-.117-.31-.118-.31-.119-.31-.119-.3-.121-.31-.121-.31-.123-.3-.123-.31-.124-.3-.125-.31-.126-.3-.127-.3-.128-.3-.129-.31-.129-.3-.131-.3-.131-.3-.132-.3-.133-.3-.134-.3-.135-.3-.136-.3-.137-.29-.137-.3-.139-.3-.139-.3-.14-.29-.141-.3-.142-.29-.143-.3-.143-.29-.145-.29-.145-.3-.146-.29-.147-.29-.148-.29-.149-.29-.15-.29-.15-.29-.152-.29-.152-.29-.153-.29-.154-.29-.154-.29-.156-.28-.156-.29-.158-.28-.158-.29-.159-.28-.159-.29-.161-.28-.161-.29-.163-.28-.163-.28-.164-.28-.164-.28-.166-.28-.166-.28-.168-.28-.168-.28-.169-.28-.169-.27-.171-.28-.171-.28-.172-.28-.173-.27-.174-.27-.174-.28-.175-.27-.176-.28-.177-.27-.178-.27-.179-.27-.179-.27-.18-.27-.181-.27-.182-.27-.182-.27-.183-.27-.184-.27-.185-.26-.186-.27-.186-.26-.187-.27-.188-.26-.189-.27-.189-.26-.191-.26-.191-.27-.191-.26-.193-.26-.193-.26-.194-.26-.195-.26-.196-.25-.196-.26-.197-.26-.198-.26-.199-.25-.199-.26-.2-.25-.201-.26-.202-.25-.202-.25-.203-.26-.204-.25-.205-.25-.205-.25-.206-.25-.207-.25-.209-.49-.416-.5-.42-.49-.423-.49-.426-.48-.429-.49-.431-.48-.435-.48-.437-.47-.44-.48-.443-.47-.446-.46-.449-.47-.451-.46-.454-.46-.457-.46-.46-.45-.462-.45-.465-.45-.468-.45-.47-.44-.473-.44-.476-.44-.478-.43-.481-.43-.483-.43-.487-.43-.488-.42-.492-.42-.493-.42-.495-.21-.251-.2-.25-.21-.25-.21-.251-.2-.252-.2-.252-.21-.253-.2-.254-.2-.254-.2-.255-.2-.255-.2-.256-.2-.257-.2-.257-.2-.258-.19-.258-.2-.259-.19-.26-.2-.26-.19-.261-.19-.261-.19-.262-.19-.263-.19-.263-.19-.264-.19-.265-.19-.265-.19-.265-.18-.266-.19-.267-.18-.268-.19-.268-.18-.268-.18-.269-.19-.27-.18-.27-.18-.271-.18-.271-.18-.272-.17-.273-.18-.273-.18-.274-.17-.274-.17-.275-.18-.275-.17-.276-.17-.276-.17-.277-.18-.278-.16-.278-.17-.279-.17-.279-.17-.28-.17-.28-.16-.281-.17-.282-.16-.282-.16-.282-.17-.283-.16-.284-.16-.284-.16-.284-.16-.286-.15-.285-.16-.286-.16-.287-.15-.287-.16-.288-.15-.289-.15-.288-.16-.29-.15-.29-.15-.29-.15-.291-.15-.291-.15-.292-.14-.293-.15-.293-.14-.293-.15-.294-.14-.294-.15-.295-.14-.296-.14-.296-.14-.296-.14-.297-.14-.297-.13-.298-.14-.299-.14-.299-.13-.299-.13-.3-.14-.3-.13-.301-.13-.301-.13-.302-.13-.302-.13-.303-.13-.303-.12-.304-.13-.304-.13-.304-.12-.305-.12-.306-.13-.306-.12-.306-.12-.307-.12-.307-.12-.308-.11-.308-.12-.309-.12-.309-.11-.31-.12-.31-.11-.31-.11-.311-.11-.311-.11-.312-.11-.312-.11-.313-.11-.313-.11-.314-.1-.314-.11-.314-.1-.315-.1-.315-.11-.316-.1-.316-.1-.316-.1-.317-.09-.318-.1-.317-.1-.319-.09-.318-.1-.319-.09-.319-.09-.32-.1-.32-.09-.321-.08-.321-.09-.321-.09-.322-.09-.322-.08-.323-.09-.323-.08-.323-.09-.324-.08-.324-.08-.325-.08-.325-.08-.325-.07-.326-.08-.326-.08-.326-.07-.327-.08-.327-.07-.328-.07-.328-.07-.328-.07-.329-.07-.329-.07-.329-.07-.33-.06-.33-.07-.331-.06-.33-.07-.332-.06-.331-.06-.332-.06-.332-.06-.333-.05-.333-.06-.333-.06-.334-.05-.334-.06-.334-.05-.335-.05-.335-.05-.335-.05-.336-.05-.336-.05-.336-.04-.337-.05-.336-.05-.338-.04-.337-.04-.338-.04-.339-.04-.338-.04-.339-.04-.339-.04-.34-.03-.339-.04-.341-.03-.34-.04-.341-.03-.341-.03-.341-.03-.342-.03-.342-.02-.342-.03-.342-.03-.343-.02-.343-.02-.344-.03-.343-.02-.344-.02-.345-.02-.344-.02-.345-.01-.345-.02-.345-.01-.346-.02-.346-.01-.346-.01-.346-.01-.347-.01-.347-.01-.347-.01-.348v-.348l-.01-.348v-.348-.348l-.01-.349v-.349-.349l.01-.349v-.349-.348l.01-.348v-.348l.01-.347.01-.347.01-.347.01-.347.01-.346.01-.347.02-.346.01-.345.02-.346.01-.345.02-.344.02-.345.02-.344.02-.344.03-.344.02-.343.02-.343.03-.343.03-.343.02-.342.03-.342.03-.341.03-.342.03-.341.04-.34.03-.341.04-.34.03-.34.04-.339.04-.339.04-.339.04-.339.04-.338.04-.338.04-.338.05-.337.05-.337.04-.337.05-.336.05-.336.05-.335.05-.336.05-.335.05-.334.06-.335.05-.334.06-.333.06-.334.05-.333.06-.332.06-.332.06-.332.06-.332.07-.331.06-.331.07-.33.06-.33.07-.33.07-.33.07-.329.07-.328.07-.329.07-.328.07-.327.08-.327.07-.327.08-.327.08-.326.07-.325.08-.326.08-.325.08-.324.08-.324.09-.324.08-.323.09-.323.08-.323.09-.322.09-.322.09-.321.08-.321.09-.321.1-.32.09-.32.09-.319.1-.319.09-.319.1-.318.1-.318.09-.317.1-.317.1-.317.1-.316.11-.315.1-.316.1-.314.11-.315.1-.314.11-.313.11-.313.11-.313.11-.312.11-.312.11-.311.11-.311.11-.311.12-.31.11-.309.12-.309.12-.309.11-.308.12-.308.12-.307.12-.307.12-.307.13-.306.12-.305.12-.305.13-.305.13-.304.12-.304.13-.303.13-.302.13-.303.13-.301.13-.302.13-.3.14-.301.13-.3.13-.299.14-.299.14-.298.13-.298.14-.297.14-.297.14-.297.14-.296.14-.295.15-.295.14-.294.15-.294.14-.294.15-.293.14-.292.15-.292.15-.292.15-.29.15-.291.15-.29.16-.289.15-.289.15-.288.16-.288.15-.287.16-.287.16-.286.15-.286.16-.285.16-.285.16-.284.16-.283.17-.283.16-.283.16-.282.17-.281.16-.281.17-.281.17-.279.17-.28.17-.278.16-.278.18-.278.17-.277.17-.276.17-.276.18-.276.17-.275.17-.274.18-.274.18-.273.17-.272.18-.272.18-.272.18-.27.18-.271.19-.269.18-.269.18-.269.19-.268.18-.267.19-.267.18-.266.19-.266.19-.265.19-.264.19-.264.19-.263.19-.263.19-.262.19-.262.19-.26.2-.261.19-.259.2-.259.19-.259.2-.258.2-.257.2-.257.2-.256.2-.255.2-.255.2-.254.2-.253.21-.253.2-.253.2-.251.21-.251.21-.251.2-.249.21-.251.42-.495.42-.494.42-.491.43-.489.43-.486.43-.484.43-.48.44-.479.44-.475.44-.473.45-.471.45-.467.45-.465.45-.463.46-.459.46-.457.46-.454.47-.452.46-.448.47-.446.48-.443.47-.44.48-.438.48-.434.49-.432.48-.429.49-.426.49-.423.5-.42.49-.416.25-.209.25-.206.25-.207.25-.205.25-.204.26-.204.25-.203.25-.203.26-.201.25-.201.26-.2.25-.2.26-.198.26-.198.26-.197.25-.197.26-.195.26-.195.26-.194.26-.194.26-.192.27-.192.26-.191.26-.19.27-.19.26-.188.27-.188.26-.187.27-.187.26-.185.27-.185.27-.184.27-.183.27-.183.27-.182.27-.18.27-.181.27-.179.27-.178.27-.178.28-.177.27-.176.28-.175.27-.175.27-.174.28-.172.28-.173.28-.171.27-.17.28-.17.28-.169.28-.168.28-.167.28-.166.28-.166.28-.165.28-.164.28-.163.29-.162.28-.161.29-.161.28-.16.29-.159.28-.158.29-.157.28-.156.29-.156.29-.155.29-.154.29-.153.29-.152.29-.151.29-.151.29-.149.29-.149.29-.148.29-.147.3-.146.29-.146.29-.144.3-.144.29-.143.3-.141.29-.142.3-.14.3-.139.3-.138.29-.138.3-.137.3-.135.3-.135.3-.134.3-.133.3-.132.3-.132.3-.13.31-.13.3-.129.3-.127.3-.127.31-.126.3-.125.31-.124.3-.124.31-.122.31-.121.3-.121.31-.12.31-.118.31-.118.31-.117.3-.116.31-.115.31-.114.31-.114.31-.112.32-.111.31-.111.31-.109.31-.109.32-.107.31-.107.31-.106.32-.105.31-.104.32-.103.31-.102.32-.101.32-.1.31-.099.32-.098.32-.098.32-.096.32-.096.31-.094.32-.093.32-.093.32-.092.32-.09.33-.09.32-.088.32-.088.32-.087.32-.086.33-.084.32-.084.32-.083.33-.082.32-.081.33-.08.32-.079.33-.078.32-.077.33-.076.33-.075.32-.074.33-.073.33-.072.33-.071.33-.07.33-.069.32-.068.33-.067.34-.066.33-.065.33-.064.33-.063.33-.062.33-.061.33-.06.34-.058.33-.058.33-.057.34-.056.33-.055.33-.054.34-.053.33-.051.34-.051.34-.05.33-.049.34-.047.33-.047.34-.046.34-.044.34-.044.33-.042.34-.041.34-.041.34-.039.34-.038.34-.038.34-.036.34-.035.34-.034.34-.033.34-.032.34-.031.34-.03.34-.029.35-.027.34-.027.34-.025.35-.025.34-.023.34-.023.35-.021.34-.02.35-.019.34-.018.35-.017.34-.016.35-.015.34-.014.35-.012.35-.012.34-.01.35-.01.35-.008.34-.007.35-.006.35-.005.35-.004.35-.003.34-.002h.35.35z" transform="matrix(.798311 0 0 .798311 -2393.45 -435.253)"/><path d="m1249.04 1064.65c34.24 0 69.77-31.81 105.13-22.93 41.53 10.42 79.45 41.08 22.51 143.17-12.42 22.29-23.19 39.41-30.98 56.17-5.77 12.38-34.25 93.6-64.01 73.62-25.62-17.21-14.01-50.65-10.86-74.5 3.14-23.84.23-36.1-21.79-36.1zm0 0c-34.24 0-69.77-31.81-105.14-22.93-41.52 10.42-79.44 41.08-22.51 143.17 12.43 22.29 23.2 39.41 30.99 56.17 5.76 12.38 34.24 93.6 64.01 73.62 25.62-17.21 14-50.65 10.86-74.5-3.14-23.84-.23-36.1 21.79-36.1z" transform="matrix(.264109 0 0 .264109 -243.641 -225.14)"/></g></svg>