<?xml version="1.0" standalone="no"?>
<!DOCTYPE svg PUBLIC "-//W3C//DTD SVG 20010904//EN"
 "http://www.w3.org/TR/2001/REC-SVG-20010904/DTD/svg10.dtd">
<svg version="1.0" xmlns="http://www.w3.org/2000/svg"
 width="1024.000000pt" height="1024.000000pt" viewBox="0 0 1024.000000 1024.000000"
 preserveAspectRatio="xMidYMid meet">
<metadata>
Created by potrace 1.11, written by Peter Selinger 2001-2013
</metadata>
<g transform="translate(0.000000,1024.000000) scale(0.100000,-0.100000)"
fill="#000000" stroke="none">
<path d="M2997 10094 c-1 -1 -36 -4 -77 -8 -41 -3 -86 -7 -100 -10 -14 -3 -38
-7 -55 -9 -37 -6 -145 -34 -206 -53 -25 -9 -52 -17 -60 -18 -8 -2 -27 -8 -44
-15 -16 -6 -61 -24 -100 -39 -38 -14 -71 -30 -73 -34 -2 -5 -12 -8 -22 -8 -10
0 -22 -4 -25 -10 -3 -5 -15 -10 -25 -10 -10 0 -20 -3 -22 -7 -1 -5 -25 -19
-53 -33 -130 -65 -264 -156 -479 -322 -44 -34 -261 -252 -293 -295 -15 -20
-40 -50 -55 -66 -14 -16 -48 -61 -74 -101 -27 -39 -51 -73 -54 -76 -10 -10
-74 -117 -117 -195 -42 -78 -69 -132 -112 -227 -23 -53 -107 -299 -115 -338
-2 -14 -7 -32 -10 -40 -10 -28 -56 -290 -62 -356 -3 -36 -8 -75 -10 -87 -5
-25 -5 -348 0 -417 2 -25 7 -70 11 -100 4 -30 8 -64 10 -75 3 -23 22 -127 31
-165 3 -14 7 -36 10 -50 2 -14 16 -65 30 -115 15 -49 27 -94 29 -100 1 -5 8
-23 15 -40 7 -16 15 -38 16 -47 2 -10 13 -39 25 -65 12 -27 28 -64 36 -83 24
-55 90 -187 120 -238 32 -56 155 -245 164 -252 13 -10 149 -219 149 -229 0 -6
3 -11 8 -11 4 0 12 -10 18 -23 7 -12 39 -75 72 -139 51 -101 150 -322 157
-353 1 -5 5 -17 8 -25 57 -141 172 -609 192 -785 3 -27 8 -63 11 -80 3 -16 7
-43 8 -60 5 -43 17 -145 21 -180 2 -16 7 -57 10 -90 4 -33 8 -74 10 -92 2 -18
6 -37 10 -43 3 -5 1 -10 -5 -10 -6 0 -9 -4 -6 -9 9 -14 17 -83 40 -331 3 -25
7 -67 10 -95 13 -105 16 -132 21 -180 3 -27 8 -66 11 -85 2 -19 7 -53 10 -75
13 -104 15 -123 20 -165 3 -25 7 -57 9 -72 9 -53 14 -83 25 -163 11 -77 15
-102 24 -162 3 -16 7 -46 11 -68 3 -23 7 -50 9 -62 3 -11 7 -38 11 -59 3 -22
8 -52 11 -69 3 -16 7 -41 9 -55 2 -14 6 -36 9 -50 3 -14 8 -41 10 -60 3 -19
12 -69 21 -110 8 -41 17 -88 20 -105 2 -16 4 -30 5 -30 1 0 4 -16 6 -35 3 -19
7 -42 11 -50 3 -8 7 -22 8 -30 1 -14 15 -82 21 -105 1 -5 4 -21 7 -35 3 -14
13 -56 21 -95 9 -38 18 -79 20 -90 1 -11 6 -29 9 -40 3 -11 8 -31 11 -45 2
-14 9 -44 15 -66 11 -40 28 -117 35 -159 3 -17 32 -138 53 -225 3 -14 8 -34
10 -45 6 -38 45 -160 59 -187 8 -15 14 -30 14 -33 -1 -3 15 -28 34 -55 20 -28
36 -53 36 -56 0 -13 123 -125 177 -161 69 -47 163 -89 218 -99 22 -3 45 -10
50 -14 16 -12 267 -5 298 8 16 7 35 12 43 12 8 0 34 9 56 20 23 11 46 20 50
20 18 0 145 89 188 132 130 130 182 235 235 478 2 8 4 15 6 15 1 0 3 9 5 20 1
11 14 65 29 120 14 55 28 108 30 118 2 10 6 26 9 35 3 9 8 31 11 47 9 47 10
49 18 63 5 6 6 12 3 12 -2 0 2 24 11 53 8 28 16 61 18 72 1 11 10 47 19 80 16
57 20 72 30 120 3 11 21 85 41 165 20 80 38 152 40 160 2 8 40 161 85 340 45
179 83 332 85 340 2 8 11 44 20 80 9 36 19 73 21 82 2 10 6 26 8 35 2 10 14
56 26 103 12 47 23 92 25 100 4 18 24 98 30 123 3 9 7 26 9 36 21 93 60 219
81 260 27 55 105 155 144 186 50 39 142 97 161 100 3 0 28 8 55 17 90 30 210
38 288 19 20 -5 37 -7 37 -6 0 9 145 -57 187 -86 87 -58 213 -208 213 -252 0
-7 4 -17 10 -23 5 -5 11 -18 13 -29 2 -11 6 -27 10 -35 4 -12 29 -102 33 -120
0 -3 4 -18 8 -35 45 -180 59 -236 67 -270 5 -22 11 -49 14 -60 3 -11 7 -29 10
-40 2 -11 13 -53 24 -94 11 -41 18 -78 15 -83 -3 -4 -1 -8 4 -8 5 0 9 -6 9
-12 1 -11 8 -42 27 -118 7 -26 26 -104 32 -130 4 -14 7 -31 7 -37 0 -7 3 -13
7 -13 3 0 6 -8 7 -17 1 -10 4 -29 7 -43 3 -14 8 -36 12 -50 6 -28 6 -28 22
-85 6 -22 14 -56 17 -75 8 -41 10 -50 18 -70 3 -8 11 -37 17 -65 7 -27 14 -57
16 -65 27 -104 35 -138 39 -155 2 -11 11 -47 20 -80 14 -52 23 -94 29 -130 1
-5 5 -16 10 -23 4 -7 5 -16 2 -19 -3 -3 -2 -11 3 -17 5 -6 12 -24 15 -41 3
-16 12 -59 21 -95 9 -35 17 -71 19 -80 2 -8 6 -22 9 -30 3 -8 13 -46 22 -85 8
-38 17 -77 20 -85 2 -8 20 -78 40 -155 19 -77 37 -147 40 -155 2 -8 4 -16 5
-17 2 -2 3 -6 4 -10 5 -23 59 -128 85 -167 47 -67 129 -148 196 -193 137 -90
252 -122 417 -118 129 4 146 7 208 30 25 9 55 19 67 22 12 3 28 11 34 19 6 8
20 14 29 14 10 0 20 4 22 8 2 5 24 23 50 41 61 41 168 150 168 170 0 5 7 14
15 21 16 13 58 100 80 165 14 41 63 234 68 270 1 11 6 26 11 33 4 7 6 16 3 19
-3 3 -2 16 4 30 5 13 11 38 14 56 3 18 8 40 11 49 3 9 7 25 9 36 2 10 15 67
29 126 14 59 28 122 31 139 3 18 8 40 11 49 6 19 13 51 20 88 2 14 9 48 16 75
6 28 13 59 14 70 1 11 3 20 4 20 2 0 9 34 15 74 2 18 7 41 9 50 3 9 7 32 10
51 3 19 8 46 11 60 3 14 8 41 11 60 4 19 8 44 11 55 2 11 6 36 9 55 3 19 7 46
10 60 3 14 7 41 9 60 3 19 8 46 11 60 3 14 8 39 9 55 2 17 6 44 10 60 3 17 8
48 11 70 2 21 7 51 10 65 2 14 7 43 10 65 2 22 7 54 9 70 3 17 7 45 10 64 2
19 7 58 11 85 4 28 8 60 10 71 1 11 5 40 9 65 3 25 8 63 10 84 3 21 7 55 9 75
3 20 8 65 12 101 3 36 8 74 10 85 2 11 6 47 9 80 3 33 8 76 11 95 2 19 7 64
10 100 9 102 13 145 14 145 1 0 3 22 5 49 2 28 6 68 9 90 3 23 8 73 12 111 3
39 8 77 9 85 2 8 6 44 9 80 8 78 15 127 21 160 3 14 7 43 10 65 3 22 7 47 10
55 2 8 6 35 9 60 3 25 10 60 15 78 5 18 10 35 10 37 0 3 3 20 7 38 4 17 9 39
9 47 1 8 4 22 8 30 3 8 9 33 13 55 4 22 8 45 10 50 25 91 52 180 81 265 36
106 46 133 79 205 10 22 19 45 20 50 5 29 132 274 189 365 12 19 22 39 23 44
0 5 4 12 9 15 12 8 204 287 229 331 10 19 22 37 25 40 7 6 19 28 85 162 62
125 83 172 117 263 28 73 76 232 83 275 3 14 7 33 10 42 3 10 7 30 10 45 2 16
9 51 14 78 22 113 30 186 35 300 2 50 4 95 5 100 2 6 2 12 1 15 -1 3 -3 61 -5
130 -5 134 -11 225 -20 278 -3 17 -9 47 -12 65 -3 17 -7 43 -9 57 -2 14 -7 36
-10 50 -3 14 -9 39 -11 55 -3 17 -17 68 -30 115 -14 47 -27 92 -29 100 -2 8
-4 15 -5 15 -1 0 -3 7 -5 15 -22 95 -173 421 -236 512 -11 14 -19 31 -19 37 0
6 -4 11 -9 11 -5 0 -14 14 -21 30 -7 17 -16 30 -20 30 -3 0 -13 12 -21 28 -15
30 -152 204 -214 271 -58 64 -189 192 -222 218 -15 12 -37 30 -48 40 -59 54
-333 243 -352 243 -3 0 -18 9 -34 21 -16 11 -29 17 -29 13 0 -4 -8 0 -17 8
-21 19 -189 98 -207 98 -6 0 -16 4 -21 9 -6 5 -59 25 -120 45 -163 55 -174 58
-245 72 -14 3 -34 8 -45 11 -11 3 -33 7 -50 9 -16 1 -55 5 -85 9 -74 9 -295 9
-345 1 -22 -4 -56 -9 -75 -11 -31 -3 -86 -12 -115 -19 -5 -1 -26 -6 -45 -10
-19 -4 -46 -11 -60 -16 -14 -5 -59 -18 -100 -31 -41 -12 -79 -24 -85 -28 -5
-3 -16 -6 -23 -7 -6 -1 -31 -11 -55 -22 -37 -17 -72 -31 -87 -34 -3 -1 -27
-14 -53 -30 -26 -15 -51 -28 -55 -28 -16 0 -371 -217 -392 -240 -12 -13 -136
-89 -150 -92 -8 -2 -17 -5 -20 -8 -3 -3 -27 -16 -54 -30 -64 -32 -100 -85
-100 -149 0 -61 26 -104 89 -145 118 -78 450 -291 483 -311 33 -19 82 -78 83
-99 7 -99 -33 -156 -121 -170 -37 -5 -110 29 -212 101 -26 18 -50 33 -54 33
-3 0 -20 11 -38 25 -18 14 -38 25 -44 25 -6 0 -12 3 -14 8 -3 7 -95 72 -103
72 -2 0 -44 27 -94 60 -50 33 -95 60 -100 60 -5 0 -11 4 -13 8 -2 6 -240 162
-315 207 -9 6 -69 44 -132 86 -64 41 -134 86 -156 99 -22 13 -43 29 -47 34 -5
7 -8 7 -8 1 0 -6 -3 -6 -8 0 -5 9 -207 143 -300 200 -53 33 -259 165 -267 172
-30 23 -196 105 -270 134 -52 20 -73 29 -115 47 -14 6 -45 16 -70 23 -25 6
-51 16 -57 21 -7 6 -13 8 -13 5 0 -3 -33 4 -72 14 -71 19 -123 28 -183 34 -16
2 -30 4 -30 5 0 5 -272 19 -278 14z m208 -329 c89 -10 129 -16 159 -26 16 -5
41 -9 55 -9 15 0 31 -4 37 -9 5 -4 32 -14 59 -21 103 -28 377 -150 405 -180 3
-3 26 -18 52 -33 26 -15 54 -34 62 -43 9 -8 16 -13 16 -11 0 3 36 -18 79 -46
93 -61 278 -180 406 -262 222 -142 271 -175 282 -184 7 -6 15 -11 18 -11 3 0
46 -27 95 -60 49 -33 91 -60 94 -60 5 0 129 -81 136 -89 3 -3 17 -13 32 -21
29 -16 140 -87 368 -235 230 -149 281 -172 397 -179 72 -5 186 23 250 61 62
36 132 106 168 167 57 98 76 264 41 361 -20 55 -53 121 -66 135 -8 9 -27 30
-41 47 -15 18 -69 60 -120 94 -52 33 -106 70 -121 80 -15 10 -31 19 -37 19 -5
0 -11 4 -13 8 -1 5 -22 20 -45 33 -23 14 -39 29 -35 35 8 11 187 134 196 134
3 0 30 16 60 35 100 64 341 175 436 200 3 1 12 5 20 8 21 9 167 44 210 51 69
11 176 20 245 20 100 -1 182 -10 270 -31 17 -4 33 -6 37 -5 3 1 30 -7 60 -17
29 -10 55 -19 58 -19 13 -2 148 -50 175 -61 102 -46 279 -138 330 -171 17 -11
40 -25 53 -31 12 -7 22 -16 22 -21 0 -4 7 -8 15 -8 8 0 15 -4 15 -8 0 -4 14
-16 30 -26 73 -42 296 -250 400 -372 56 -65 120 -152 120 -164 0 -5 4 -10 9
-10 4 0 19 -20 32 -45 13 -25 27 -45 31 -45 5 0 8 -7 8 -15 0 -8 3 -15 8 -15
4 0 12 -10 18 -23 5 -12 28 -58 50 -102 50 -98 87 -179 103 -225 78 -225 119
-398 138 -595 9 -89 9 -422 -1 -495 -6 -48 -11 -78 -31 -195 -21 -124 -93
-343 -162 -495 -19 -41 -33 -76 -31 -76 2 -1 -4 -10 -12 -20 -9 -11 -29 -44
-45 -74 -16 -30 -39 -70 -53 -87 -13 -18 -20 -33 -16 -33 5 0 4 -4 -2 -8 -6
-4 -42 -52 -80 -107 -38 -55 -72 -104 -77 -110 -14 -18 -77 -117 -77 -122 0
-3 -8 -17 -19 -31 -26 -38 -133 -236 -136 -252 0 -3 -6 -14 -12 -25 -47 -89
-145 -346 -197 -520 -31 -105 -92 -353 -100 -410 -2 -11 -6 -31 -10 -45 -3
-14 -8 -41 -10 -60 -3 -19 -5 -35 -6 -35 -1 0 -3 -9 -4 -20 -4 -32 -17 -115
-22 -138 -4 -20 -7 -51 -19 -167 -3 -25 -7 -61 -9 -80 -6 -41 -12 -99 -21
-190 -4 -36 -8 -83 -11 -105 -2 -22 -6 -62 -9 -90 -3 -27 -7 -68 -10 -90 -2
-22 -7 -71 -11 -110 -11 -117 -13 -130 -15 -135 -1 -3 -1 -8 -1 -11 1 -7 -35
-299 -42 -345 -5 -32 -15 -108 -22 -169 -2 -22 -7 -53 -9 -70 -3 -16 -7 -50
-10 -75 -3 -25 -9 -67 -15 -95 -5 -27 -12 -70 -15 -95 -11 -85 -73 -448 -90
-530 -3 -14 -8 -38 -11 -55 -3 -16 -11 -61 -19 -100 -8 -38 -16 -81 -19 -95
-3 -14 -7 -36 -11 -50 -3 -14 -8 -36 -11 -50 -2 -14 -7 -34 -9 -45 -3 -11 -16
-72 -30 -135 -15 -63 -28 -126 -31 -140 -3 -14 -8 -34 -11 -45 -3 -11 -7 -29
-9 -40 -1 -11 -10 -49 -19 -85 -9 -36 -19 -76 -21 -90 -2 -14 -7 -36 -11 -50
-9 -36 -10 -40 -23 -95 -6 -27 -14 -61 -16 -74 -18 -91 -100 -241 -132 -241
-5 0 -12 -6 -15 -14 -3 -8 -40 -31 -81 -52 -66 -32 -86 -37 -158 -40 -66 -2
-97 3 -151 21 -38 13 -77 31 -86 39 -10 9 -20 16 -24 16 -20 0 -127 135 -127
159 0 6 -4 19 -9 29 -5 9 -12 24 -14 32 -2 8 -5 17 -6 20 -5 14 -52 198 -56
215 -4 26 -7 35 -45 185 -18 69 -33 132 -35 140 -2 8 -13 53 -24 100 -12 47
-24 96 -27 110 -3 14 -8 34 -11 45 -4 11 -8 25 -9 30 -1 6 -16 66 -34 135 -17
69 -33 132 -35 141 -2 9 -47 191 -100 405 -53 214 -99 396 -101 404 -2 8 -13
53 -24 100 -23 90 -27 109 -34 137 -2 10 -21 83 -41 163 -36 143 -41 162 -49
199 -30 132 -104 304 -166 385 -46 59 -153 164 -205 201 -72 52 -187 110 -258
132 -431 133 -882 -49 -1096 -441 -29 -53 -53 -111 -66 -156 -16 -57 -38 -137
-40 -150 -2 -8 -31 -123 -64 -256 -34 -132 -63 -249 -65 -260 -2 -10 -18 -75
-36 -144 -31 -120 -35 -139 -44 -178 -2 -9 -9 -37 -16 -62 -7 -25 -14 -53 -16
-62 -9 -38 -13 -58 -49 -198 -20 -80 -38 -152 -40 -160 -2 -8 -19 -78 -39
-154 -20 -77 -34 -142 -31 -144 2 -3 0 -13 -6 -24 -6 -11 -12 -27 -14 -36 -2
-9 -11 -46 -20 -82 -8 -36 -17 -72 -19 -80 -2 -8 -9 -35 -16 -60 -7 -25 -14
-56 -17 -70 -2 -14 -11 -50 -19 -80 -8 -30 -17 -66 -20 -80 -3 -14 -12 -47
-20 -75 -8 -27 -17 -61 -19 -75 -16 -111 -82 -313 -109 -332 -7 -5 -7 -8 -1
-8 6 0 -20 -28 -56 -63 -84 -79 -160 -111 -271 -114 -81 -2 -112 5 -193 44
-85 40 -177 142 -194 215 -1 4 -8 26 -16 48 -8 22 -12 40 -9 40 2 0 0 8 -5 18
-5 9 -11 31 -14 47 -10 55 -18 90 -27 125 -5 19 -11 46 -14 60 -8 37 -36 162
-42 185 -3 11 -7 27 -8 35 -2 8 -6 26 -9 40 -28 115 -47 201 -52 230 -3 19 -8
43 -11 52 -3 9 -7 27 -9 40 -3 13 -15 70 -26 128 -12 58 -23 112 -24 120 -1 8
-5 29 -8 45 -7 33 -11 51 -32 170 -8 44 -17 94 -19 110 -3 17 -7 40 -9 51 -3
12 -8 39 -11 60 -3 22 -9 56 -12 77 -6 40 -9 56 -19 127 -3 25 -10 68 -15 95
-5 28 -12 75 -15 105 -4 30 -9 69 -11 85 -3 17 -7 46 -10 65 -2 19 -6 49 -8
65 -6 47 -18 138 -21 165 -3 30 -15 121 -21 170 -3 19 -7 58 -9 85 -5 64 -13
138 -19 184 -3 20 -8 65 -11 101 -3 36 -8 83 -10 105 -8 68 -16 148 -19 185
-6 69 -19 175 -23 195 -2 11 -6 46 -8 78 -2 32 -9 84 -14 115 -6 31 -12 71
-15 87 -3 17 -7 41 -10 55 -3 14 -7 41 -10 60 -2 19 -7 46 -10 60 -4 14 -9 39
-12 55 -2 17 -9 46 -15 66 -9 34 -22 96 -35 162 -9 48 -104 349 -119 378 -8
15 -15 33 -15 40 0 6 -12 39 -26 73 -15 33 -33 77 -41 96 -31 72 -156 315
-164 318 -5 2 -9 9 -9 17 0 7 -48 84 -107 171 -59 88 -133 198 -164 245 -57
85 -144 247 -186 345 -24 56 -89 248 -97 286 -3 12 -10 43 -17 68 -6 25 -13
54 -15 65 -17 83 -26 138 -30 190 -3 33 -7 78 -9 100 -5 51 -5 321 -1 360 2
17 7 55 10 85 3 30 8 66 11 80 3 14 7 39 9 55 2 17 9 56 15 87 7 32 12 60 12
63 0 2 6 23 14 45 8 22 15 42 15 45 4 32 62 199 94 270 223 509 607 910 1096
1144 63 30 120 56 125 57 6 2 54 19 108 38 53 19 97 32 97 30 0 -3 8 0 18 5
27 14 169 43 242 48 36 3 66 6 68 8 3 3 134 -3 197 -10z"/>
</g>
</svg>
